<svg xmlns="http://www.w3.org/2000/svg" xmlns:xlink="http://www.w3.org/1999/xlink" width="64" zoomAndPan="magnify" viewBox="0 0 48 48" height="64" preserveAspectRatio="xMidYMid meet" version="1.0"><defs><g/><clipPath id="2991cbc790"><path d="M 2.398438 6.6875 L 45.644531 6.6875 L 45.644531 40.335938 L 2.398438 40.335938 Z M 2.398438 6.6875 " clip-rule="nonzero"/></clipPath><clipPath id="c0acb3b4d0"><path d="M 4.605469 6.6875 L 43.394531 6.6875 C 43.980469 6.6875 44.542969 6.917969 44.953125 7.332031 C 45.367188 7.746094 45.601562 8.304688 45.601562 8.890625 L 45.601562 38.128906 C 45.601562 39.347656 44.613281 40.335938 43.394531 40.335938 L 4.605469 40.335938 C 4.019531 40.335938 3.457031 40.101562 3.046875 39.6875 C 2.632812 39.277344 2.398438 38.714844 2.398438 38.128906 L 2.398438 8.890625 C 2.398438 7.671875 3.386719 6.6875 4.605469 6.6875 Z M 4.605469 6.6875 " clip-rule="nonzero"/></clipPath><clipPath id="ac934cae94"><path d="M 3.851562 9.40625 L 12.167969 9.40625 L 12.167969 14.027344 L 3.851562 14.027344 Z M 3.851562 9.40625 " clip-rule="nonzero"/></clipPath><clipPath id="9c69cf55a1"><path d="M 3.851562 17.113281 L 12.167969 17.113281 L 12.167969 21.738281 L 3.851562 21.738281 Z M 3.851562 17.113281 " clip-rule="nonzero"/></clipPath><clipPath id="27dea3c31b"><path d="M 3.851562 32.992188 L 12.167969 32.992188 L 12.167969 37.613281 L 3.851562 37.613281 Z M 3.851562 32.992188 " clip-rule="nonzero"/></clipPath><clipPath id="c2226975b9"><path d="M 3.851562 25.277344 L 12.167969 25.277344 L 12.167969 29.898438 L 3.851562 29.898438 Z M 3.851562 25.277344 " clip-rule="nonzero"/></clipPath><clipPath id="68825097bd"><path d="M 35.3125 9.40625 L 43.628906 9.40625 L 43.628906 14.027344 L 35.3125 14.027344 Z M 35.3125 9.40625 " clip-rule="nonzero"/></clipPath><clipPath id="fde535b435"><path d="M 35.3125 17.113281 L 43.628906 17.113281 L 43.628906 21.738281 L 35.3125 21.738281 Z M 35.3125 17.113281 " clip-rule="nonzero"/></clipPath><clipPath id="9740202c55"><path d="M 35.3125 32.992188 L 43.628906 32.992188 L 43.628906 37.613281 L 35.3125 37.613281 Z M 35.3125 32.992188 " clip-rule="nonzero"/></clipPath><clipPath id="7107e9470e"><path d="M 35.3125 25.277344 L 43.628906 25.277344 L 43.628906 29.898438 L 35.3125 29.898438 Z M 35.3125 25.277344 " clip-rule="nonzero"/></clipPath></defs><g clip-path="url(#2991cbc790)"><g clip-path="url(#c0acb3b4d0)"><path fill="#292929" d="M 2.398438 6.6875 L 45.644531 6.6875 L 45.644531 40.335938 L 2.398438 40.335938 Z M 2.398438 6.6875 " fill-opacity="1" fill-rule="nonzero"/></g></g><g fill="#e4e2dd" fill-opacity="1"><g transform="translate(13.404412, 34.281356)"><g><path d="M 1 -4.828125 C 1 -5.503906 1.191406 -6.039062 1.578125 -6.4375 C 1.960938 -6.84375 2.523438 -7.046875 3.265625 -7.046875 C 3.898438 -7.046875 4.421875 -6.8125 4.828125 -6.34375 C 5.234375 -5.875 5.648438 -5.335938 6.078125 -4.734375 C 6.515625 -4.128906 7.066406 -3.59375 7.734375 -3.125 C 8.410156 -2.65625 9.320312 -2.421875 10.46875 -2.421875 C 11.332031 -2.421875 12.015625 -2.507812 12.515625 -2.6875 C 13.023438 -2.875 13.28125 -3.300781 13.28125 -3.96875 C 13.28125 -4.507812 12.984375 -4.945312 12.390625 -5.28125 C 11.804688 -5.613281 11.0625 -5.921875 10.15625 -6.203125 C 9.257812 -6.492188 8.296875 -6.816406 7.265625 -7.171875 C 6.242188 -7.523438 5.28125 -7.96875 4.375 -8.5 C 3.46875 -9.039062 2.722656 -9.738281 2.140625 -10.59375 C 1.554688 -11.445312 1.265625 -12.53125 1.265625 -13.84375 C 1.265625 -15.3125 1.597656 -16.488281 2.265625 -17.375 C 2.929688 -18.269531 3.769531 -18.9375 4.78125 -19.375 C 5.789062 -19.8125 6.785156 -20.09375 7.765625 -20.21875 C 8.753906 -20.351562 9.570312 -20.421875 10.21875 -20.421875 C 11.925781 -20.421875 13.515625 -20.21875 14.984375 -19.8125 C 16.460938 -19.414062 17.65625 -18.820312 18.5625 -18.03125 C 19.46875 -17.25 19.921875 -16.285156 19.921875 -15.140625 C 19.921875 -14.566406 19.710938 -14.078125 19.296875 -13.671875 C 18.878906 -13.273438 18.382812 -13.078125 17.8125 -13.078125 C 16.9375 -13.078125 16.226562 -13.320312 15.6875 -13.8125 C 15.15625 -14.300781 14.671875 -14.851562 14.234375 -15.46875 C 13.796875 -16.09375 13.289062 -16.644531 12.71875 -17.125 C 12.15625 -17.613281 11.421875 -17.859375 10.515625 -17.859375 C 9.609375 -17.859375 9.007812 -17.648438 8.71875 -17.234375 C 8.4375 -16.816406 8.296875 -16.390625 8.296875 -15.953125 C 8.296875 -15.316406 8.582031 -14.828125 9.15625 -14.484375 C 9.726562 -14.148438 10.46875 -13.875 11.375 -13.65625 C 12.28125 -13.4375 13.234375 -13.191406 14.234375 -12.921875 C 15.242188 -12.660156 16.203125 -12.300781 17.109375 -11.84375 C 18.015625 -11.394531 18.75 -10.757812 19.3125 -9.9375 C 19.882812 -9.113281 20.171875 -8.03125 20.171875 -6.6875 C 20.171875 -4.976562 19.675781 -3.613281 18.6875 -2.59375 C 17.695312 -1.570312 16.429688 -0.832031 14.890625 -0.375 C 13.347656 0.0703125 11.722656 0.296875 10.015625 0.296875 C 9.304688 0.296875 8.445312 0.210938 7.4375 0.046875 C 6.4375 -0.117188 5.441406 -0.394531 4.453125 -0.78125 C 3.460938 -1.164062 2.640625 -1.6875 1.984375 -2.34375 C 1.328125 -3 1 -3.828125 1 -4.828125 Z M 1 -4.828125 "/></g></g></g><g clip-path="url(#ac934cae94)"><path fill="#3c7f72" d="M 3.851562 9.40625 L 12.175781 9.40625 L 12.175781 14.027344 L 3.851562 14.027344 Z M 3.851562 9.40625 " fill-opacity="1" fill-rule="nonzero"/></g><g clip-path="url(#9c69cf55a1)"><path fill="#992800" d="M 3.851562 17.113281 L 12.175781 17.113281 L 12.175781 21.738281 L 3.851562 21.738281 Z M 3.851562 17.113281 " fill-opacity="1" fill-rule="nonzero"/></g><g clip-path="url(#27dea3c31b)"><path fill="#ffaf00" d="M 3.851562 32.992188 L 12.175781 32.992188 L 12.175781 37.613281 L 3.851562 37.613281 Z M 3.851562 32.992188 " fill-opacity="1" fill-rule="nonzero"/></g><g clip-path="url(#c2226975b9)"><path fill="#d34a24" d="M 3.851562 25.277344 L 12.175781 25.277344 L 12.175781 29.898438 L 3.851562 29.898438 Z M 3.851562 25.277344 " fill-opacity="1" fill-rule="nonzero"/></g><g clip-path="url(#68825097bd)"><path fill="#3c7f72" d="M 35.3125 9.40625 L 43.636719 9.40625 L 43.636719 14.027344 L 35.3125 14.027344 Z M 35.3125 9.40625 " fill-opacity="1" fill-rule="nonzero"/></g><g clip-path="url(#fde535b435)"><path fill="#992800" d="M 35.3125 17.113281 L 43.636719 17.113281 L 43.636719 21.738281 L 35.3125 21.738281 Z M 35.3125 17.113281 " fill-opacity="1" fill-rule="nonzero"/></g><g clip-path="url(#9740202c55)"><path fill="#ffaf00" d="M 35.3125 32.992188 L 43.636719 32.992188 L 43.636719 37.613281 L 35.3125 37.613281 Z M 35.3125 32.992188 " fill-opacity="1" fill-rule="nonzero"/></g><g clip-path="url(#7107e9470e)"><path fill="#d34a24" d="M 35.3125 25.277344 L 43.636719 25.277344 L 43.636719 29.898438 L 35.3125 29.898438 Z M 35.3125 25.277344 " fill-opacity="1" fill-rule="nonzero"/></g></svg>